<svg xmlns="http://www.w3.org/2000/svg" viewBox="0 0 1200 900" width="1200" height="900" role="img">
  <defs>
    <linearGradient id="bg-i20" x1="0" y1="0" x2="1" y2="1">
      <stop offset="0%" stop-color="#254683"/>
      <stop offset="55%" stop-color="#18305e"/>
      <stop offset="100%" stop-color="#0a1428"/>
    </linearGradient>
    <radialGradient id="glow-i20" cx="0.25" cy="0.2" r="0.75">
      <stop offset="0%" stop-color="#ffffff" stop-opacity="0.3"/>
      <stop offset="100%" stop-color="#ffffff" stop-opacity="0"/>
    </radialGradient>
    <pattern id="grid-i20" width="60" height="60" patternUnits="userSpaceOnUse">
      <path d="M60 0 H0 V60" fill="none" stroke="#ffffff" stroke-opacity="0.07" stroke-width="1.5"/>
    </pattern>
    <filter id="soft-i20" x="-30%" y="-30%" width="160%" height="160%">
      <feGaussianBlur stdDeviation="60"/>
    </filter>
  </defs>

  <rect width="1200" height="900" fill="url(#bg-i20)"/>
  <rect width="1200" height="900" fill="url(#grid-i20)"/>
  <circle cx="180" cy="140" r="240" fill="#ffffff" fill-opacity="0.14" filter="url(#soft-i20)"/>
  <circle cx="1060" cy="800" r="220" fill="#ffffff" fill-opacity="0.1" filter="url(#soft-i20)"/>
  <g><path d="M80 200 h231.00000000000003 l90 90 h168 v300" fill="none" stroke="rgba(255,255,255,0.3)" stroke-width="3" stroke-linecap="round" stroke-linejoin="round"/><circle cx="401" cy="290" r="9" fill="rgba(255,255,255,0.55)"/><circle cx="80" cy="200" r="6" fill="rgba(255,255,255,0.4)"/><path d="M80 420 h165 l90 90 h120 v560" fill="none" stroke="rgba(255,255,255,0.27)" stroke-width="3" stroke-linecap="round" stroke-linejoin="round"/><circle cx="335" cy="510" r="9" fill="rgba(255,255,255,0.55)"/><circle cx="80" cy="420" r="6" fill="rgba(255,255,255,0.4)"/><path d="M640 160 h209.00000000000003 l90 90 h152 v420" fill="none" stroke="rgba(255,255,255,0.24)" stroke-width="3" stroke-linecap="round" stroke-linejoin="round"/><circle cx="939" cy="250" r="9" fill="rgba(255,255,255,0.55)"/><circle cx="640" cy="160" r="6" fill="rgba(255,255,255,0.4)"/><path d="M520 640 h275 l90 90 h200 v180" fill="none" stroke="rgba(255,255,255,0.21)" stroke-width="3" stroke-linecap="round" stroke-linejoin="round"/><circle cx="885" cy="730" r="9" fill="rgba(255,255,255,0.55)"/><circle cx="520" cy="640" r="6" fill="rgba(255,255,255,0.4)"/><path d="M200 700 h385.00000000000006 l90 90 h280 v120" fill="none" stroke="rgba(255,255,255,0.18)" stroke-width="3" stroke-linecap="round" stroke-linejoin="round"/><circle cx="675" cy="790" r="9" fill="rgba(255,255,255,0.55)"/><circle cx="200" cy="700" r="6" fill="rgba(255,255,255,0.4)"/></g>
  <rect width="1200" height="900" fill="url(#glow-i20)"/>
</svg>
