<svg xmlns="http://www.w3.org/2000/svg" viewBox="0 0 1200 900" width="1200" height="900" role="img">
  <defs>
    <linearGradient id="bg-i32" x1="0" y1="0" x2="1" y2="1">
      <stop offset="0%" stop-color="#4c5b76"/>
      <stop offset="55%" stop-color="#202a3c"/>
      <stop offset="100%" stop-color="#101723"/>
    </linearGradient>
    <radialGradient id="glow-i32" cx="0.25" cy="0.2" r="0.75">
      <stop offset="0%" stop-color="#ffffff" stop-opacity="0.3"/>
      <stop offset="100%" stop-color="#ffffff" stop-opacity="0"/>
    </radialGradient>
    <pattern id="grid-i32" width="60" height="60" patternUnits="userSpaceOnUse">
      <path d="M60 0 H0 V60" fill="none" stroke="#ffffff" stroke-opacity="0.07" stroke-width="1.5"/>
    </pattern>
    <filter id="soft-i32" x="-30%" y="-30%" width="160%" height="160%">
      <feGaussianBlur stdDeviation="60"/>
    </filter>
  </defs>

  <rect width="1200" height="900" fill="url(#bg-i32)"/>
  <rect width="1200" height="900" fill="url(#grid-i32)"/>
  <circle cx="180" cy="140" r="240" fill="#ffffff" fill-opacity="0.14" filter="url(#soft-i32)"/>
  <circle cx="1060" cy="800" r="220" fill="#ffffff" fill-opacity="0.1" filter="url(#soft-i32)"/>
  <g><rect x="90" y="420" width="170" height="340" rx="16" fill="rgba(255,255,255,0.10)" stroke="rgba(255,255,255,0.25)" stroke-width="2"/><rect x="163" y="444" width="26" height="30" rx="5" fill="rgba(255,255,255,0.32)"/><rect x="218" y="444" width="26" height="30" rx="5" fill="rgba(255,255,255,0.32)"/><rect x="108" y="514" width="26" height="30" rx="5" fill="rgba(255,255,255,0.32)"/><rect x="163" y="514" width="26" height="30" rx="5" fill="rgba(255,255,255,0.32)"/><rect x="108" y="584" width="26" height="30" rx="5" fill="rgba(255,255,255,0.32)"/><rect x="218" y="584" width="26" height="30" rx="5" fill="rgba(255,255,255,0.32)"/><rect x="163" y="654" width="26" height="30" rx="5" fill="rgba(255,255,255,0.32)"/><rect x="218" y="654" width="26" height="30" rx="5" fill="rgba(255,255,255,0.32)"/><rect x="280" y="300" width="150" height="460" rx="16" fill="rgba(255,255,255,0.12)" stroke="rgba(255,255,255,0.25)" stroke-width="2"/><rect x="298" y="324" width="26" height="30" rx="5" fill="rgba(255,255,255,0.32)"/><rect x="353" y="324" width="26" height="30" rx="5" fill="rgba(255,255,255,0.32)"/><rect x="298" y="394" width="26" height="30" rx="5" fill="rgba(255,255,255,0.32)"/><rect x="353" y="464" width="26" height="30" rx="5" fill="rgba(255,255,255,0.32)"/><rect x="298" y="534" width="26" height="30" rx="5" fill="rgba(255,255,255,0.32)"/><rect x="353" y="534" width="26" height="30" rx="5" fill="rgba(255,255,255,0.32)"/><rect x="298" y="604" width="26" height="30" rx="5" fill="rgba(255,255,255,0.32)"/><rect x="353" y="674" width="26" height="30" rx="5" fill="rgba(255,255,255,0.32)"/><rect x="450" y="480" width="200" height="280" rx="16" fill="rgba(255,255,255,0.13)" stroke="rgba(255,255,255,0.25)" stroke-width="2"/><rect x="468" y="504" width="26" height="30" rx="5" fill="rgba(255,255,255,0.32)"/><rect x="578" y="504" width="26" height="30" rx="5" fill="rgba(255,255,255,0.32)"/><rect x="523" y="574" width="26" height="30" rx="5" fill="rgba(255,255,255,0.32)"/><rect x="578" y="574" width="26" height="30" rx="5" fill="rgba(255,255,255,0.32)"/><rect x="468" y="644" width="26" height="30" rx="5" fill="rgba(255,255,255,0.32)"/><rect x="523" y="644" width="26" height="30" rx="5" fill="rgba(255,255,255,0.32)"/><rect x="468" y="714" width="26" height="30" rx="5" fill="rgba(255,255,255,0.32)"/><rect x="578" y="714" width="26" height="30" rx="5" fill="rgba(255,255,255,0.32)"/><rect x="670" y="240" width="160" height="520" rx="16" fill="rgba(255,255,255,0.15)" stroke="rgba(255,255,255,0.25)" stroke-width="2"/><rect x="743" y="264" width="26" height="30" rx="5" fill="rgba(255,255,255,0.32)"/><rect x="688" y="334" width="26" height="30" rx="5" fill="rgba(255,255,255,0.32)"/><rect x="743" y="334" width="26" height="30" rx="5" fill="rgba(255,255,255,0.32)"/><rect x="688" y="404" width="26" height="30" rx="5" fill="rgba(255,255,255,0.32)"/><rect x="743" y="474" width="26" height="30" rx="5" fill="rgba(255,255,255,0.32)"/><rect x="688" y="544" width="26" height="30" rx="5" fill="rgba(255,255,255,0.32)"/><rect x="743" y="544" width="26" height="30" rx="5" fill="rgba(255,255,255,0.32)"/><rect x="688" y="614" width="26" height="30" rx="5" fill="rgba(255,255,255,0.32)"/><rect x="743" y="684" width="26" height="30" rx="5" fill="rgba(255,255,255,0.32)"/><rect x="850" y="400" width="130" height="360" rx="16" fill="rgba(255,255,255,0.16)" stroke="rgba(255,255,255,0.25)" stroke-width="2"/><rect x="868" y="424" width="26" height="30" rx="5" fill="rgba(255,255,255,0.32)"/><rect x="923" y="424" width="26" height="30" rx="5" fill="rgba(255,255,255,0.32)"/><rect x="868" y="494" width="26" height="30" rx="5" fill="rgba(255,255,255,0.32)"/><rect x="923" y="564" width="26" height="30" rx="5" fill="rgba(255,255,255,0.32)"/><rect x="868" y="634" width="26" height="30" rx="5" fill="rgba(255,255,255,0.32)"/><rect x="923" y="634" width="26" height="30" rx="5" fill="rgba(255,255,255,0.32)"/><rect x="868" y="704" width="26" height="30" rx="5" fill="rgba(255,255,255,0.32)"/><rect x="1000" y="330" width="120" height="430" rx="16" fill="rgba(255,255,255,0.17)" stroke="rgba(255,255,255,0.25)" stroke-width="2"/><rect x="1018" y="354" width="26" height="30" rx="5" fill="rgba(255,255,255,0.32)"/><rect x="1073" y="424" width="26" height="30" rx="5" fill="rgba(255,255,255,0.32)"/><rect x="1018" y="494" width="26" height="30" rx="5" fill="rgba(255,255,255,0.32)"/><rect x="1073" y="494" width="26" height="30" rx="5" fill="rgba(255,255,255,0.32)"/><rect x="1018" y="564" width="26" height="30" rx="5" fill="rgba(255,255,255,0.32)"/><rect x="1073" y="634" width="26" height="30" rx="5" fill="rgba(255,255,255,0.32)"/><rect x="1018" y="704" width="26" height="30" rx="5" fill="rgba(255,255,255,0.32)"/><rect x="1073" y="704" width="26" height="30" rx="5" fill="rgba(255,255,255,0.32)"/></g>
  <rect width="1200" height="900" fill="url(#glow-i32)"/>
</svg>
