<svg xmlns="http://www.w3.org/2000/svg" viewBox="0 0 1200 900" width="1200" height="900" role="img">
  <defs>
    <linearGradient id="bg-i5" x1="0" y1="0" x2="1" y2="1">
      <stop offset="0%" stop-color="#254683"/>
      <stop offset="55%" stop-color="#18305e"/>
      <stop offset="100%" stop-color="#0a1428"/>
    </linearGradient>
    <radialGradient id="glow-i5" cx="0.25" cy="0.2" r="0.75">
      <stop offset="0%" stop-color="#ffffff" stop-opacity="0.3"/>
      <stop offset="100%" stop-color="#ffffff" stop-opacity="0"/>
    </radialGradient>
    <pattern id="grid-i5" width="60" height="60" patternUnits="userSpaceOnUse">
      <path d="M60 0 H0 V60" fill="none" stroke="#ffffff" stroke-opacity="0.07" stroke-width="1.5"/>
    </pattern>
    <filter id="soft-i5" x="-30%" y="-30%" width="160%" height="160%">
      <feGaussianBlur stdDeviation="60"/>
    </filter>
  </defs>

  <rect width="1200" height="900" fill="url(#bg-i5)"/>
  <rect width="1200" height="900" fill="url(#grid-i5)"/>
  <circle cx="180" cy="140" r="240" fill="#ffffff" fill-opacity="0.14" filter="url(#soft-i5)"/>
  <circle cx="1060" cy="800" r="220" fill="#ffffff" fill-opacity="0.1" filter="url(#soft-i5)"/>
  <g><rect x="180" y="330" width="440" height="360" rx="34" fill="rgba(255,255,255,0.14)" stroke="rgba(255,255,255,0.45)" stroke-width="3"/><circle cx="400" cy="510" r="140" fill="none" stroke="rgba(255,255,255,0.5)" stroke-width="4"/><path d="M400 510 Q474.3 560.8 520.0 510.0" fill="none" stroke="rgba(255,255,255,0.55)" stroke-width="18" stroke-linecap="round"/><path d="M400 510 Q374.6 596.3 437.1 624.1" fill="none" stroke="rgba(255,255,255,0.55)" stroke-width="18" stroke-linecap="round"/><path d="M400 510 Q310.0 512.5 302.9 580.5" fill="none" stroke="rgba(255,255,255,0.55)" stroke-width="18" stroke-linecap="round"/><path d="M400 510 Q369.8 425.2 302.9 439.5" fill="none" stroke="rgba(255,255,255,0.55)" stroke-width="18" stroke-linecap="round"/><path d="M400 510 Q471.3 455.1 437.1 395.9" fill="none" stroke="rgba(255,255,255,0.55)" stroke-width="18" stroke-linecap="round"/><circle cx="400" cy="510" r="34" fill="rgba(255,255,255,0.9)"/><path d="M700 320 q40 70 0 140 q-40 70 0 140 q40 70 0 140" fill="none" stroke="rgba(255,255,255,0.45)" stroke-width="7" stroke-linecap="round"/><path d="M810 320 q40 70 0 140 q-40 70 0 140 q40 70 0 140" fill="none" stroke="rgba(255,255,255,0.36)" stroke-width="7" stroke-linecap="round"/><path d="M920 320 q40 70 0 140 q-40 70 0 140 q40 70 0 140" fill="none" stroke="rgba(255,255,255,0.27)" stroke-width="7" stroke-linecap="round"/><path d="M1030 320 q40 70 0 140 q-40 70 0 140 q40 70 0 140" fill="none" stroke="rgba(255,255,255,0.18)" stroke-width="7" stroke-linecap="round"/></g>
  <rect width="1200" height="900" fill="url(#glow-i5)"/>
</svg>
